# xmcd
#
# Track frame offsets:
#	150
#	18961
#	38579
#	56243
#	74753
#	92502
#	107642
#	128829
#	145115
#	163655
#	185597
#	211014
#
# Disc length: 3046 seconds
#
# Revision: 1
# Processed by: cddbd v1.5.2PL0 Copyright (c) Steve Scherf et al.
# Submitted via: audiograbber 1.83.01
#
DISCID=a40be40c
DTITLE=Gillam, Tom - Dallas
DYEAR=2001
DGENRE=Country
TTITLE0=Diamonds in the rough
TTITLE1=Dallas
TTITLE2=Got to make it work
TTITLE3=Just like rain
TTITLE4=High
TTITLE5=We won't look back
TTITLE6=Every morning, every night, every day
TTITLE7=A little too strange
TTITLE8=Get my groove on
TTITLE9=A place called when
TTITLE10=Fade away
TTITLE11=Bottom of the bottle
EXTD=
EXTT0=
EXTT1=
EXTT2=
EXTT3=
EXTT4=
EXTT5=
EXTT6=
EXTT7=
EXTT8=
EXTT9=
EXTT10=
EXTT11=
PLAYORDER=
